<svg xmlns="http://www.w3.org/2000/svg" viewBox="0 0 30 27" width="30" height="27" shape-rendering="crispEdges"><style>.la{animation:la .45s steps(1) infinite}.lb{animation:lb .45s steps(1) infinite}@keyframes la{50%{opacity:0}}@keyframes lb{0%{opacity:0}50%{opacity:1}}.es{opacity:0;animation:bl 4s steps(1) infinite}.eo{animation:bo 4s steps(1) infinite}@keyframes bl{0%,91%{opacity:0}92%,96%{opacity:1}97%,100%{opacity:0}}@keyframes bo{0%,91%{opacity:1}92%,96%{opacity:0}97%,100%{opacity:1}}@media (prefers-reduced-motion:reduce){*{animation:none!important}}</style><g transform="translate(15.0,13.5)"><g transform="translate(-15.00,-13.50)"><g class="" fill="#d97757"><rect x="9.00" y="0.00" width="3.05" height="3.05"/><rect x="12.00" y="0.00" width="3.05" height="3.05"/><rect x="15.00" y="0.00" width="3.05" height="3.05"/><rect x="18.00" y="0.00" width="3.05" height="3.05"/><rect x="3.00" y="3.00" width="3.05" height="3.05"/><rect x="6.00" y="3.00" width="3.05" height="3.05"/><rect x="9.00" y="3.00" width="3.05" height="3.05"/><rect x="12.00" y="3.00" width="3.05" height="3.05"/><rect x="15.00" y="3.00" width="3.05" height="3.05"/><rect x="18.00" y="3.00" width="3.05" height="3.05"/><rect x="21.00" y="3.00" width="3.05" height="3.05"/><rect x="24.00" y="3.00" width="3.05" height="3.05"/><rect x="0.00" y="6.00" width="3.05" height="3.05"/><rect x="3.00" y="6.00" width="3.05" height="3.05"/><rect x="6.00" y="6.00" width="3.05" height="3.05"/><rect x="9.00" y="6.00" width="3.05" height="3.05"/><rect x="12.00" y="6.00" width="3.05" height="3.05"/><rect x="15.00" y="6.00" width="3.05" height="3.05"/><rect x="18.00" y="6.00" width="3.05" height="3.05"/><rect x="21.00" y="6.00" width="3.05" height="3.05"/><rect x="24.00" y="6.00" width="3.05" height="3.05"/><rect x="27.00" y="6.00" width="3.05" height="3.05"/><rect x="0.00" y="9.00" width="3.05" height="3.05"/><rect x="3.00" y="9.00" width="3.05" height="3.05"/><rect x="6.00" y="9.00" width="3.05" height="3.05"/><rect x="9.00" y="9.00" width="3.05" height="3.05"/><rect x="12.00" y="9.00" width="3.05" height="3.05"/><rect x="15.00" y="9.00" width="3.05" height="3.05"/><rect x="18.00" y="9.00" width="3.05" height="3.05"/><rect x="21.00" y="9.00" width="3.05" height="3.05"/><rect x="24.00" y="9.00" width="3.05" height="3.05"/><rect x="27.00" y="9.00" width="3.05" height="3.05"/><rect x="0.00" y="12.00" width="3.05" height="3.05"/><rect x="3.00" y="12.00" width="3.05" height="3.05"/><rect x="6.00" y="12.00" width="3.05" height="3.05"/><rect x="9.00" y="12.00" width="3.05" height="3.05"/><rect x="12.00" y="12.00" width="3.05" height="3.05"/><rect x="15.00" y="12.00" width="3.05" height="3.05"/><rect x="18.00" y="12.00" width="3.05" height="3.05"/><rect x="21.00" y="12.00" width="3.05" height="3.05"/><rect x="24.00" y="12.00" width="3.05" height="3.05"/><rect x="27.00" y="12.00" width="3.05" height="3.05"/><rect x="0.00" y="15.00" width="3.05" height="3.05"/><rect x="3.00" y="15.00" width="3.05" height="3.05"/><rect x="6.00" y="15.00" width="3.05" height="3.05"/><rect x="9.00" y="15.00" width="3.05" height="3.05"/><rect x="12.00" y="15.00" width="3.05" height="3.05"/><rect x="15.00" y="15.00" width="3.05" height="3.05"/><rect x="18.00" y="15.00" width="3.05" height="3.05"/><rect x="21.00" y="15.00" width="3.05" height="3.05"/><rect x="24.00" y="15.00" width="3.05" height="3.05"/><rect x="27.00" y="15.00" width="3.05" height="3.05"/><rect x="3.00" y="18.00" width="3.05" height="3.05"/><rect x="6.00" y="18.00" width="3.05" height="3.05"/><rect x="9.00" y="18.00" width="3.05" height="3.05"/><rect x="12.00" y="18.00" width="3.05" height="3.05"/><rect x="15.00" y="18.00" width="3.05" height="3.05"/><rect x="18.00" y="18.00" width="3.05" height="3.05"/><rect x="21.00" y="18.00" width="3.05" height="3.05"/><rect x="24.00" y="18.00" width="3.05" height="3.05"/><g class="la"><rect x="0.00" y="21.00" width="3.05" height="3.05"/><rect x="6.00" y="21.00" width="3.05" height="3.05"/><rect x="12.00" y="21.00" width="3.05" height="3.05"/><rect x="15.00" y="21.00" width="3.05" height="3.05"/><rect x="21.00" y="21.00" width="3.05" height="3.05"/><rect x="27.00" y="21.00" width="3.05" height="3.05"/><rect x="0.00" y="24.00" width="3.05" height="3.05"/><rect x="9.00" y="24.00" width="3.05" height="3.05"/><rect x="18.00" y="24.00" width="3.05" height="3.05"/><rect x="27.00" y="24.00" width="3.05" height="3.05"/></g><g class="lb"><rect x="3.00" y="21.00" width="3.05" height="3.05"/><rect x="9.00" y="21.00" width="3.05" height="3.05"/><rect x="18.00" y="21.00" width="3.05" height="3.05"/><rect x="24.00" y="21.00" width="3.05" height="3.05"/><rect x="3.00" y="24.00" width="3.05" height="3.05"/><rect x="12.00" y="24.00" width="3.05" height="3.05"/><rect x="15.00" y="24.00" width="3.05" height="3.05"/><rect x="24.00" y="24.00" width="3.05" height="3.05"/></g></g><g class="eo" fill="#1f2328"><rect x="6.00" y="9.00" width="3.05" height="3.05"/><rect x="6.00" y="12.00" width="3.05" height="3.05"/><rect x="21.00" y="9.00" width="3.05" height="3.05"/><rect x="21.00" y="12.00" width="3.05" height="3.05"/></g><g class="es" fill="#1f2328"><rect x="6.00" y="12.00" width="3.05" height="3.05"/><rect x="9.00" y="12.00" width="3.05" height="3.05"/><rect x="18.00" y="12.00" width="3.05" height="3.05"/><rect x="21.00" y="12.00" width="3.05" height="3.05"/></g></g></g></svg>